[URL=http://imagecurl.com/viewer.php?file=00302661699244783868.png][IMG]http://imagecurl.com/images/00302661699244783868_thumb.png[/IMG][/URL]
[URL=http://imagecurl.com/viewer.php?file=59450062643575266289.png][IMG]http://imagecurl.com/images/59450062643575266289_thumb.png[/IMG][/URL]
[URL=http://imagecurl.com/viewer.php?file=86014801880686013925.png][IMG]http://imagecurl.com/images/86014801880686013925_thumb.png[/IMG][/URL]
[URL=http://imagecurl.com/viewer.php?file=25626684587078034183.png][IMG]http://imagecurl.com/images/25626684587078034183_thumb.png[/IMG][/URL]
[URL=http://imagecurl.com/viewer.php?file=63028498940893319404.png][IMG]http://imagecurl.com/images/63028498940893319404_thumb.png[/IMG][/URL]
[URL=http://imagecurl.com/viewer.php?file=54934838400523545697.png][IMG]http://imagecurl.com/images/54934838400523545697_thumb.png[/IMG][/URL]



[mediainfo]
Video
ID                                       : 1
Format                                   : AVC
Format/Info                              : Advanced Video Codec
Format profile                           : High@L4.1
Format settings, CABAC                   : Yes
Format settings, ReFrames                : 5 frames
Codec ID                                 : V_MPEG4/ISO/AVC
Duration                                 : 2h 1mn
Bit rate                                 : 8 835 Kbps
Width                                    : 1 920 pixels
Height                                   : 824 pixels
Display aspect ratio                     : 2.35:1
Frame rate mode                          : Constant
Frame rate                               : 23.976 fps
Color space                              : YUV
Chroma subsampling                       : 4:2:0
Bit depth                                : 8 bits
Scan type                                : Progressive
Bits/(Pixel*Frame)                       : 0.233
Stream size                              : 7.30 GiB (83%)
Writing library                          : x264 core 79 r1342 e8501ef
Encoding settings                        : cabac=1 / ref=5 / deblock=1:0:0 / analyse=0x3:0x133 / me=umh / subme=7 / psy=1 / psy_rd=1.0:0.0 / mixed_ref=1 / me_range=16 / chroma_me=1 / trellis=1 / 8x8dct=1 / cqm=0 / deadzone=21,11 / chroma_qp_offset=-2 / threads=6 / nr=0 / decimate=1 / mbaff=0 / constrained_intra=0 / bframes=3 / b_pyramid=0 / b_adapt=1 / b_bias=0 / direct=1 / wpredb=1 / wpredp=2 / keyint=250 / keyint_min=25 / scenecut=40 / rc_lookahead=40 / rc=2pass / mbtree=1 / bitrate=8835 / ratetol=1.0 / qcomp=0.60 / qpmin=10 / qpmax=51 / qpstep=4 / cplxblur=20.0 / qblur=0.5 / ip_ratio=1.40 / aq=1:1.00
Language                                 : English
Default                                  : Yes
Forced                                   : No

Audio
ID                                       : 2
Format                                   : DTS
Format/Info                              : Digital Theater Systems
Mode                                     : 16
Format settings, Endianness              : Big
Codec ID                                 : A_DTS
Duration                                 : 2h 1mn
Bit rate mode                            : Constant
Bit rate                                 : 1 509 Kbps
Channel(s)                               : 6 channels
Channel positions                        : Front: L C R, Side: L R, LFE
Sampling rate                            : 48.0 KHz
Bit depth                                : 24 bits
Compression mode                         : Lossy
Stream size                              : 1.28 GiB (15%)
Language                                 : Korean
Default                                  : Yes
Forced                                   : No

Text
ID                                       : 3
Format                                   : UTF-8
Codec ID                                 : S_TEXT/UTF8
Codec ID/Info                            : UTF-8 Plain Text
Language                                 : English
Default                                  : Yes
Forced                                   : No



[/mediainfo]
